<svg width="24" height="24" viewBox="0 0 24 24" fill="none" xmlns="http://www.w3.org/2000/svg">
<path d="M12 0C5.37257 0 0 5.37257 0 12C0 18.6274 5.37257 24 12 24C18.6274 24 24 18.6274 24 12C24 5.37257 18.6274 0 12 0ZM1.14286 12C1.14287 10.2272 1.577 8.48134 2.40732 6.915C3.23764 5.34865 4.43889 4.00946 5.90611 3.01442C7.37334 2.01937 9.06191 1.39876 10.8243 1.20678C12.5867 1.01481 14.3693 1.25732 16.0163 1.91312C17.6634 2.56893 19.1248 3.61809 20.2729 4.96893C21.421 6.31977 22.2208 7.93119 22.6025 9.66243C22.9842 11.3937 22.9362 13.192 22.4626 14.9004C21.989 16.6088 21.1043 18.1752 19.8857 19.4629C19.6985 18.4387 19.214 17.4923 18.4926 16.7417C17.6434 15.8571 16.5737 15.3383 15.6343 15.0457C15.032 14.8583 14.4491 15.072 14.0457 15.3429C13.608 15.6389 12.888 16 12 16C11.112 16 10.392 15.6389 9.95429 15.344C9.55086 15.0709 8.968 14.8583 8.36571 15.0457C7.42628 15.3383 6.35657 15.8571 5.50743 16.7417C4.78578 17.4919 4.30087 18.4379 4.11314 19.4617C2.2027 17.4475 1.13932 14.7761 1.14286 12ZM5.14857 20.4229C5.21257 19.12 5.69257 18.1977 6.33143 17.5337C7.00571 16.8309 7.88571 16.392 8.70629 16.136C8.85257 16.0903 9.07086 16.1257 9.31543 16.2914C9.86057 16.6594 10.8034 17.1429 12 17.1429C13.1966 17.1429 14.1394 16.6594 14.6846 16.2914C14.9291 16.1257 15.1474 16.0903 15.2937 16.136C16.1154 16.392 16.9931 16.8309 17.6686 17.5337C18.3074 18.1966 18.7874 19.1211 18.8514 20.4229C16.9171 22.0009 14.4964 22.861 12 22.8571C9.50364 22.861 7.08285 22.0009 5.14857 20.4229ZM9.14286 9.71428C9.14286 8.13143 10.3771 6.85714 12 6.85714C13.6229 6.85714 14.8571 8.13143 14.8571 9.71428C14.8571 11.2971 13.6229 12.5714 12 12.5714C10.3771 12.5714 9.14286 11.2983 9.14286 9.71428ZM12 5.71429C11.4734 5.70971 10.9512 5.81005 10.4639 6.00945C9.97651 6.20885 9.53373 6.50332 9.16138 6.87567C8.78903 7.24802 8.49457 7.69079 8.29517 8.17816C8.09577 8.66553 7.99543 9.18772 8 9.71428C8 11.9177 9.736 13.7143 12 13.7143C14.264 13.7143 16 11.9177 16 9.71428C16 7.51086 14.264 5.71429 12 5.71429Z" fill="#385191"/>
</svg>
