<svg width="56" height="56" viewBox="0 0 56 56" fill="none" xmlns="http://www.w3.org/2000/svg">
<path d="M4.66699 27.9997C4.66699 19.2007 4.66699 14.8 7.40166 12.0677C10.1363 9.33534 14.5347 9.33301 23.3337 9.33301H32.667C41.466 9.33301 45.8667 9.33301 48.599 12.0677C51.3313 14.8023 51.3337 19.2007 51.3337 27.9997V32.6663C51.3337 41.4653 51.3337 45.866 48.599 48.5983C45.8643 51.3307 41.466 51.333 32.667 51.333H23.3337C14.5347 51.333 10.134 51.333 7.40166 48.5983C4.66933 45.8637 4.66699 41.4653 4.66699 32.6663V27.9997Z" stroke="#385191" stroke-width="1.5"/>
<path d="M16.334 9.33301V5.83301M39.6673 9.33301V5.83301M5.83398 20.9997H50.1673" stroke="#385191" stroke-width="1.5" stroke-linecap="round"/>
<path d="M42 39.6667C42 40.2855 41.7542 40.879 41.3166 41.3166C40.879 41.7542 40.2855 42 39.6667 42C39.0478 42 38.4543 41.7542 38.0167 41.3166C37.5792 40.879 37.3333 40.2855 37.3333 39.6667C37.3333 39.0478 37.5792 38.4543 38.0167 38.0167C38.4543 37.5792 39.0478 37.3333 39.6667 37.3333C40.2855 37.3333 40.879 37.5792 41.3166 38.0167C41.7542 38.4543 42 39.0478 42 39.6667ZM42 30.3333C42 30.9522 41.7542 31.5457 41.3166 31.9832C40.879 32.4208 40.2855 32.6667 39.6667 32.6667C39.0478 32.6667 38.4543 32.4208 38.0167 31.9832C37.5792 31.5457 37.3333 30.9522 37.3333 30.3333C37.3333 29.7145 37.5792 29.121 38.0167 28.6834C38.4543 28.2458 39.0478 28 39.6667 28C40.2855 28 40.879 28.2458 41.3166 28.6834C41.7542 29.121 42 29.7145 42 30.3333ZM30.3333 39.6667C30.3333 40.2855 30.0875 40.879 29.6499 41.3166C29.2123 41.7542 28.6188 42 28 42C27.3812 42 26.7877 41.7542 26.3501 41.3166C25.9125 40.879 25.6667 40.2855 25.6667 39.6667C25.6667 39.0478 25.9125 38.4543 26.3501 38.0167C26.7877 37.5792 27.3812 37.3333 28 37.3333C28.6188 37.3333 29.2123 37.5792 29.6499 38.0167C30.0875 38.4543 30.3333 39.0478 30.3333 39.6667ZM30.3333 30.3333C30.3333 30.9522 30.0875 31.5457 29.6499 31.9832C29.2123 32.4208 28.6188 32.6667 28 32.6667C27.3812 32.6667 26.7877 32.4208 26.3501 31.9832C25.9125 31.5457 25.6667 30.9522 25.6667 30.3333C25.6667 29.7145 25.9125 29.121 26.3501 28.6834C26.7877 28.2458 27.3812 28 28 28C28.6188 28 29.2123 28.2458 29.6499 28.6834C30.0875 29.121 30.3333 29.7145 30.3333 30.3333ZM18.6667 39.6667C18.6667 40.2855 18.4208 40.879 17.9832 41.3166C17.5457 41.7542 16.9522 42 16.3333 42C15.7145 42 15.121 41.7542 14.6834 41.3166C14.2458 40.879 14 40.2855 14 39.6667C14 39.0478 14.2458 38.4543 14.6834 38.0167C15.121 37.5792 15.7145 37.3333 16.3333 37.3333C16.9522 37.3333 17.5457 37.5792 17.9832 38.0167C18.4208 38.4543 18.6667 39.0478 18.6667 39.6667ZM18.6667 30.3333C18.6667 30.9522 18.4208 31.5457 17.9832 31.9832C17.5457 32.4208 16.9522 32.6667 16.3333 32.6667C15.7145 32.6667 15.121 32.4208 14.6834 31.9832C14.2458 31.5457 14 30.9522 14 30.3333C14 29.7145 14.2458 29.121 14.6834 28.6834C15.121 28.2458 15.7145 28 16.3333 28C16.9522 28 17.5457 28.2458 17.9832 28.6834C18.4208 29.121 18.6667 29.7145 18.6667 30.3333Z" fill="#385191"/>
</svg>
