<svg width="56" height="56" viewBox="0 0 56 56" fill="none" xmlns="http://www.w3.org/2000/svg">
<path d="M28.0003 51.3337C40.887 51.3337 51.3337 40.887 51.3337 28.0003C51.3337 15.1137 40.887 4.66699 28.0003 4.66699C15.1137 4.66699 4.66699 15.1137 4.66699 28.0003C4.66699 40.887 15.1137 51.3337 28.0003 51.3337Z" stroke="#385191" stroke-width="1.5"/>
<path d="M28 14V42M35 22.1667C35 18.9467 31.8663 16.3333 28 16.3333C24.1337 16.3333 21 18.9467 21 22.1667C21 25.3867 24.1337 28 28 28C31.8663 28 35 30.6133 35 33.8333C35 37.0533 31.8663 39.6667 28 39.6667C24.1337 39.6667 21 37.0533 21 33.8333" stroke="#385191" stroke-width="1.5" stroke-linecap="round"/>
</svg>
