<svg width="23" height="25" viewBox="0 0 23 25" fill="none" xmlns="http://www.w3.org/2000/svg">
<path d="M11.415 0.75V5.43293" stroke="#385191" stroke-width="1.5" stroke-linecap="round"/>
<path d="M12.2922 1.62805C12.2922 1.39518 12.1997 1.17184 12.0351 1.00717C11.8704 0.842508 11.6471 0.75 11.4142 0.75C11.1813 0.75 10.958 0.842508 10.7933 1.00717C10.6286 1.17184 10.5361 1.39518 10.5361 1.62805V6.31098C10.5361 6.54385 10.6286 6.76718 10.7933 6.93185C10.958 7.09652 11.1813 7.18902 11.4142 7.18902C11.6471 7.18902 11.8704 7.09652 12.0351 6.93185C12.1997 6.76718 12.2922 6.54385 12.2922 6.31098V1.62805Z" fill="#385191"/>
<path d="M7.65893 4.43429C7.76516 4.38939 7.86152 4.32402 7.94249 4.24188C8.02346 4.15975 8.08746 4.06248 8.13083 3.95562C8.17421 3.84875 8.19611 3.73439 8.19529 3.61906C8.19447 3.50373 8.17094 3.38969 8.12605 3.28346C8.08116 3.17722 8.01578 3.08087 7.93365 2.9999C7.85152 2.91893 7.75424 2.85493 7.64738 2.81155C7.54051 2.76817 7.42615 2.74627 7.31082 2.74709C7.19549 2.74791 7.08146 2.77144 6.97522 2.81633C4.90699 3.68946 3.14215 5.15307 1.90148 7.02407C0.660805 8.89507 -0.000601724 11.0904 4.10764e-07 13.3354C4.10764e-07 19.6397 5.11024 24.75 11.4146 24.75C17.719 24.75 22.8293 19.6397 22.8293 13.3354C22.8299 11.0904 22.1685 8.89507 20.9278 7.02407C19.6871 5.15307 17.9223 3.68946 15.854 2.81633C15.7478 2.77144 15.6338 2.74791 15.5184 2.74709C15.4031 2.74627 15.2888 2.76817 15.1819 2.81155C15.075 2.85493 14.9778 2.91893 14.8956 2.9999C14.8135 3.08087 14.7481 3.17722 14.7032 3.28346C14.6583 3.38969 14.6348 3.50373 14.634 3.61906C14.6332 3.73439 14.6551 3.84875 14.6984 3.95562C14.7418 4.06248 14.8058 4.15975 14.8868 4.24188C14.9678 4.32402 15.0641 4.38939 15.1703 4.43429C17.222 5.30286 18.9105 6.8538 19.9499 8.82449C20.9892 10.7952 21.3156 13.0645 20.8737 15.2482C20.4318 17.4319 19.2488 19.3958 17.525 20.8074C15.8012 22.2189 13.6426 22.9913 11.4146 22.9939C9.1845 22.9953 7.02257 22.225 5.29585 20.8136C3.56913 19.4023 2.38402 17.4369 1.9417 15.251C1.49937 13.0652 1.82709 10.7936 2.86923 8.82197C3.91136 6.85031 5.60369 5.30002 7.65893 4.43429Z" fill="#385191"/>
</svg>
