<svg width="56" height="56" viewBox="0 0 56 56" fill="none" xmlns="http://www.w3.org/2000/svg">
<path d="M28.0016 3.75586C14.633 3.75586 3.75781 14.6311 3.75781 27.9997C3.75781 41.3683 14.6344 52.2435 28.0016 52.2435C41.3688 52.2435 52.2426 41.3669 52.2426 27.9997C52.2426 14.6325 41.3688 3.75586 28.0016 3.75586ZM28.0016 50.1435C15.7908 50.1435 5.85781 40.2091 5.85781 27.9997C5.85781 15.7903 15.7908 5.85586 28.0016 5.85586C40.211 5.85586 50.1426 15.7903 50.1426 27.9997C50.1426 40.2091 40.211 50.1435 28.0016 50.1435Z" fill="#385191"/>
<path d="M37.0604 33.1173L36.2652 32.6189C36.2073 32.5811 36.1422 32.5557 36.0741 32.5441C36.0059 32.5326 35.9361 32.5352 35.869 32.5517C35.8019 32.5669 35.7385 32.5952 35.6825 32.6351C35.6265 32.675 35.579 32.7257 35.5428 32.7841C34.748 34.0628 33.6397 35.1171 32.3229 35.8471C31.0062 36.577 29.5247 36.9583 28.0192 36.9547C26.5045 36.9598 25.0141 36.5748 23.6915 35.8367C22.3688 35.0987 21.2585 34.0324 20.4676 32.7407C20.3942 32.6226 20.277 32.5383 20.1416 32.5063C20.0062 32.4743 19.8637 32.4972 19.7452 32.5699L18.9444 33.0641C18.8259 33.1373 18.7414 33.2545 18.7094 33.39C18.6774 33.5254 18.7005 33.6681 18.7736 33.7865C19.7434 35.3663 21.1032 36.67 22.7223 37.5725C24.3415 38.475 26.1655 38.9459 28.0192 38.9399C29.8613 38.9452 31.6741 38.4795 33.2857 37.5871C34.8972 36.6947 36.2539 35.4053 37.227 33.8411C37.2636 33.7827 37.2883 33.7176 37.2998 33.6495C37.3112 33.5815 37.3091 33.5119 37.2937 33.4447C37.2782 33.3775 37.2496 33.314 37.2096 33.2578C37.1696 33.2016 37.1189 33.1539 37.0604 33.1173Z" fill="#385191"/>
<path d="M21.3708 23.1839C22.178 23.1839 22.8324 22.5296 22.8324 21.7223C22.8324 20.9151 22.178 20.2607 21.3708 20.2607C20.5636 20.2607 19.9092 20.9151 19.9092 21.7223C19.9092 22.5296 20.5636 23.1839 21.3708 23.1839Z" fill="#385191"/>
<path d="M34.1637 23.1839C34.971 23.1839 35.6254 22.5296 35.6254 21.7223C35.6254 20.9151 34.971 20.2607 34.1637 20.2607C33.3565 20.2607 32.7021 20.9151 32.7021 21.7223C32.7021 22.5296 33.3565 23.1839 34.1637 23.1839Z" fill="#385191"/>
</svg>
